<?xml version="1.0" encoding="utf-8"?>
<!-- Generator: Adobe Illustrator 20.1.0, SVG Export Plug-In . SVG Version: 6.00 Build 0)  -->
<svg version="1.1" id="图层_1" xmlns="http://www.w3.org/2000/svg" xmlns:xlink="http://www.w3.org/1999/xlink" x="0px" y="0px"
	 viewBox="0 0 48 48" style="enable-background:new 0 0 48 48;" xml:space="preserve">
<style type="text/css">
	.st0{fill:#E62082;}
	.st1{fill:none;}
</style>
<g>
	<path class="st0" d="M29.4,20l8.7-8.7l-0.7-0.7C33.8,7,29,5,24,5C13.5,5,5,13.5,5,24s8.5,19,19.1,19c7.7,0,14.7-4.8,17.6-12h4.2
		C42.8,40.5,34,47,24,47C11.3,47,1,36.7,1,24S11.3,1,24,1c6.1,0,11.9,2.4,16.2,6.8l0.7,0.7L47,2.4V20H29.4z"/>
</g>
<path class="st1" d="M0,0h48v48H0V0z"/>
</svg>
