<?xml version="1.0" encoding="utf-8"?>
<!-- Generator: Adobe Illustrator 20.1.0, SVG Export Plug-In . SVG Version: 6.00 Build 0)  -->
<svg version="1.1" id="图层_1" xmlns="http://www.w3.org/2000/svg" xmlns:xlink="http://www.w3.org/1999/xlink" x="0px" y="0px"
	 viewBox="0 0 48 48" style="enable-background:new 0 0 48 48;" xml:space="preserve">
<style type="text/css">
	.st0{fill:none;}
	.st1{fill:#E62082;}
</style>
<path class="st0" d="M0,0h48v48H0V0z"/>
<g id="_x31_r7DX3.tif">
	<g>
		<g>
			<polygon points="17.7,25.6 22.3,25.6 22.3,25.6 			"/>
			<polygon points="25.8,25.6 30.4,25.6 30.4,25.6 			"/>
		</g>
	</g>
</g>
<g id="_x31_r7DX3.tif_1_">
	<g>
		<g>
			<path class="st1" d="M34.9,43.5L34.8,47H33c-0.4,0-0.9,0-1.3,0c-1,0-2,0-3,0c-1.6,0-3.2-0.3-4.6-1c-2.2,1.1-4.4,1-6.3,1
				c-0.4,0-0.7,0-1.1,0h-3.5v-3.5h3.5c0.4,0,0.8,0,1.2,0c1.7,0,3.1,0,4.4-0.5V25.6h-4.6v-3.5h4.6V4.9c-0.9-0.4-1.9-0.6-2.9-0.6
				c-1.1,0-2.1,0-3.2,0c-0.4,0-0.9,0-1.3,0h-1.8l0.1-3.5H15c0.4,0,0.9,0,1.4,0c1,0,2,0,3,0c1.7,0,3.2,0.3,4.6,1c2.2-1.1,4.4-1,6.3-1
				c0.4,0,0.7,0,1.1,0h3.5v3.5h-3.5c-0.4,0-0.8,0-1.2,0c-1.7,0-3.1-0.1-4.4,0.5v17.3h4.6v3.5h-4.6v17.2c0.9,0.4,1.9,0.6,2.9,0.6
				c1.1,0,2.1,0,3.2,0c0.4,0,0.9,0,1.3,0L34.9,43.5z"/>
			<polygon class="st1" points="17.7,22.1 22.3,22.1 22.3,22.1 			"/>
			<polygon class="st1" points="25.8,22.1 30.4,22.1 30.4,22.1 			"/>
		</g>
	</g>
</g>
</svg>
